<svg viewBox="0 0 27 11" xmlns="http://www.w3.org/2000/svg" xml:space="preserve" style="fill-rule:evenodd;clip-rule:evenodd;stroke-linejoin:round;stroke-miterlimit:2"><style>@media (prefers-color-scheme:dark){path{fill:#fff}}</style><path d="M0 7.08V0h.72v7.08zm1.08 0V0h1.08v7.08zm1.44 0V0h.36v7.08zm-.552 3.876q-.54 0-.876-.36l.168-.276.012-.036.036.012q0 .012.012.048 0 .024.024.06a.14.14 0 0 0 .048.048.93.93 0 0 0 .624.216.64.64 0 0 0 .408-.132.43.43 0 0 0 .108-.564.5.5 0 0 0-.18-.168 3 3 0 0 0-.408-.204q-.408-.156-.588-.36a.7.7 0 0 1-.168-.456q0-.312.228-.504t.612-.192q.228 0 .432.096.192.096.348.252l-.204.276-.024-.024a.1.1 0 0 0-.012-.036.08.08 0 0 0-.024-.06.12.12 0 0 0-.048-.06.6.6 0 0 0-.228-.144 1 1 0 0 0-.288-.036.45.45 0 0 0-.336.12.38.38 0 0 0-.132.288q0 .132.048.228.06.096.204.18.144.096.432.204.396.168.552.336.144.18.144.444a.8.8 0 0 1-.096.384.9.9 0 0 1-.312.3q-.216.12-.516.12M3.96 7.08V0h.72v7.08zm1.08 0V0h1.08v7.08zm2.16 0V0h.36v7.08zM5.748 8.4h-.78v-.276h1.92V8.4h-.816v2.508h-.324zM7.92 7.08V0h.72v7.08zm1.8 0V0h.36v7.08zm.72 0V0h1.08v7.08zM9.036 8.124h.816q.48 0 .696.216.228.204.228.588 0 .24-.156.456a.74.74 0 0 1-.408.288l.648 1.236h-.348l-.624-1.224h-.54v1.224h-.312zm.852 1.284q.288 0 .432-.132.132-.12.132-.348a.53.53 0 0 0-.132-.372q-.144-.132-.432-.132h-.54v.984zM11.88 7.08V0h.72v7.08zm1.8 0V0h.36v7.08zm1.44 0V0h.36v7.08zm-2.016 3.564h.552V8.388h-.516v-.264h1.38v.264h-.552v2.256h.576v.264h-1.44zM15.84 7.08V0h1.08v7.08zm1.44 0V0h1.08v7.08zm1.44 0V0h.72v7.08zm-1.752 1.044h.888q.444 0 .66.228a.74.74 0 0 1 .228.564.75.75 0 0 1-.216.552q-.216.216-.648.216h-.588v1.224h-.324zm.876 1.284q.3 0 .432-.132.144-.12.144-.348a.46.46 0 0 0-.144-.36q-.144-.144-.42-.144h-.564v.984zM19.8 7.08V0h.36v7.08zm1.44 0V0h.72v7.08zm1.08 0V0h.36v7.08zm-1.392 1.044h1.704V8.4h-1.416v.912h1.176V9.6h-1.176v1.032h1.404v.276h-1.692zM23.76 7.08V0h.72v7.08zm1.08 0V0h1.08v7.08zm1.44 0V0h.36v7.08zm-.552 3.876q-.54 0-.876-.36l.168-.276.012-.036.036.012q0 .012.012.048 0 .024.024.06a.14.14 0 0 0 .048.048.93.93 0 0 0 .624.216.64.64 0 0 0 .408-.132.43.43 0 0 0 .108-.564.5.5 0 0 0-.18-.168 3 3 0 0 0-.408-.204q-.408-.156-.588-.36a.7.7 0 0 1-.168-.456q0-.312.228-.504t.612-.192q.228 0 .432.096.192.096.348.252l-.204.276-.024-.024a.1.1 0 0 0-.012-.036.08.08 0 0 0-.024-.06.12.12 0 0 0-.048-.06.6.6 0 0 0-.228-.144 1 1 0 0 0-.288-.036.45.45 0 0 0-.336.12.38.38 0 0 0-.132.288q0 .132.048.228.06.096.204.18.144.096.432.204.396.168.552.336.144.18.144.444a.8.8 0 0 1-.096.384.9.9 0 0 1-.312.3q-.216.12-.516.12" style="fill:#000;fill-rule:nonzero"/></svg>